PathFileType	4	(X/Y/Z)	 2.5Hzhigh3min.trc
DataRate	CameraRate	NumFrames	NumMarkers	Units	OrigDataRate	OrigDataStartFrame	OrigNumFrames
200	200	8	43	m	200	751	1000
Frame#	Time	C7			LSH			RSH			MAN			RASI			LASI			HIPR			HIPL			RPSI			LPSI			COX			RTHI1			RTHI2			RTHI3			RTHI4			RLKN			RMKN			RSHA1			RSHA2			RSHA3			RSHA4			RLMAL			RMMAL			RHEEL			RMET5			RMET1			RTOE			LTHI1			LTHI2			LTHI3			LTHI4			LLKN			LMKN			LSHA1			LSHA2			LSHA3			LSHA4			LLMAL			LMMAL			LHEEL			LMET5			LMET1			LTOE			
		X1	Y1	Z1	X2	Y2	Z2	X3	Y3	Z3	X4	Y4	Z4	X5	Y5	Z5	X6	Y6	Z6	X7	Y7	Z7	X8	Y8	Z8	X9	Y9	Z9	X10	Y10	Z10	X11	Y11	Z11	X12	Y12	Z12	X13	Y13	Z13	X14	Y14	Z14	X15	Y15	Z15	X16	Y16	Z16	X17	Y17	Z17	X18	Y18	Z18	X19	Y19	Z19	X20	Y20	Z20	X21	Y21	Z21	X22	Y22	Z22	X23	Y23	Z23	X24	Y24	Z24	X25	Y25	Z25	X26	Y26	Z26	X27	Y27	Z27	X28	Y28	Z28	X29	Y29	Z29	X30	Y30	Z30	X31	Y31	Z31	X32	Y32	Z32	X33	Y33	Z33	X34	Y34	Z34	X35	Y35	Z35	X36	Y36	Z36	X37	Y37	Z37	X38	Y38	Z38	X39	Y39	Z39	X40	Y40	Z40	X41	Y41	Z41	X42	Y42	Z42	X43	Y43	Z43	
751	3.7550	-0.244093	1.459103	-0.532718	-0.185508	1.449855	-0.691633	-0.161117	1.445791	-0.385525	-0.121789	1.411219	-0.549636	-0.079109	0.980715	-0.426048	-0.109588	0.979924	-0.663303	-0.120503	1.065589	-0.406339	-0.152046	1.057196	-0.679260	-0.243422	1.024432	-0.479318	-0.256857	1.022561	-0.566498	-0.256666	1.020727	-0.524822	-0.170226	0.822875	-0.356159	-0.165677	0.760810	-0.360433	-0.093856	0.774041	-0.364039	-0.106480	0.832780	-0.360867	-0.153046	0.545909	-0.384111	-0.147609	0.532288	-0.506499	-0.227906	0.416244	-0.368446	-0.238188	0.375597	-0.378522	-0.171553	0.405077	-0.366096	-0.178502	0.365358	-0.371003	-0.215486	0.195892	-0.399157	-0.194162	0.197977	-0.474054	-0.265248	0.189717	-0.444429	-0.132947	0.107458	-0.379073	-0.099819	0.107968	-0.441671	-0.078824	0.100098	-0.436235	-0.217301	0.818730	-0.707854	-0.208409	0.759728	-0.710167	-0.138760	0.772119	-0.726720	-0.155395	0.830871	-0.723627	-0.171575	0.554472	-0.705290	-0.158681	0.531282	-0.588251	-0.247544	0.388736	-0.712274	-0.253871	0.349752	-0.704084	-0.192455	0.343749	-0.710506	-0.193859	0.387155	-0.717939	-0.244533	0.201522	-0.693330	-0.214099	0.214917	-0.621752	-0.290308	0.207005	-0.648215	-0.180375	0.096690	-0.706959	-0.143842	0.094672	-0.641444	-0.129282	0.081135	-0.654778	
752	3.7600	-0.243991	1.455595	-0.532778	-0.185185	1.446331	-0.691611	-0.161056	1.442110	-0.385542	-0.121733	1.407581	-0.549605	-0.079307	0.977407	-0.426052	-0.109766	0.976459	-0.663138	-0.120742	1.062183	-0.406323	-0.152287	1.053628	-0.679195	-0.243579	1.021062	-0.479162	-0.257047	1.019148	-0.566383	-0.256854	1.017328	-0.524677	-0.169388	0.819192	-0.355970	-0.164513	0.757161	-0.360259	-0.092788	0.770783	-0.364297	-0.105724	0.829463	-0.361008	-0.150985	0.542258	-0.384056	-0.146310	0.528769	-0.506374	-0.226670	0.413109	-0.367986	-0.237350	0.372572	-0.378069	-0.170388	0.401480	-0.366109	-0.177688	0.361847	-0.371013	-0.216395	0.192791	-0.399190	-0.195521	0.194818	-0.474206	-0.266445	0.186988	-0.444109	-0.134346	0.103750	-0.379710	-0.101570	0.104239	-0.442515	-0.080612	0.096340	-0.437265	-0.216791	0.815082	-0.707835	-0.207723	0.756096	-0.710286	-0.138080	0.768747	-0.726690	-0.154889	0.827456	-0.723463	-0.170303	0.550923	-0.705755	-0.157160	0.527452	-0.588870	-0.247302	0.385568	-0.712471	-0.253849	0.346642	-0.704218	-0.192483	0.340252	-0.710846	-0.193639	0.383650	-0.718318	-0.245394	0.198410	-0.693483	-0.214908	0.211681	-0.621878	-0.291185	0.204172	-0.648443	-0.181720	0.093369	-0.707079	-0.145379	0.091077	-0.641501	-0.130863	0.077527	-0.654847	
753	3.7650	-0.243891	1.451844	-0.532847	-0.184826	1.442546	-0.691604	-0.161014	1.438178	-0.385551	-0.121686	1.403704	-0.549583	-0.079528	0.973847	-0.426063	-0.109962	0.972763	-0.662962	-0.120991	1.058531	-0.406321	-0.152529	1.049864	-0.679121	-0.243740	1.017482	-0.479001	-0.257243	1.015554	-0.566258	-0.257050	1.013737	-0.524525	-0.168567	0.815258	-0.355794	-0.163359	0.753270	-0.360099	-0.091736	0.767284	-0.364646	-0.104997	0.825921	-0.361187	-0.148845	0.538371	-0.384008	-0.144990	0.525026	-0.506227	-0.225370	0.409749	-0.367481	-0.236459	0.369332	-0.377581	-0.169168	0.397632	-0.366115	-0.176831	0.358101	-0.371017	-0.217346	0.189498	-0.399216	-0.196943	0.191450	-0.474332	-0.267681	0.184129	-0.443720	-0.135869	0.099705	-0.380385	-0.103486	0.100176	-0.443444	-0.082577	0.092215	-0.438339	-0.216287	0.811207	-0.707833	-0.207024	0.752244	-0.710422	-0.137385	0.765177	-0.726645	-0.154383	0.823834	-0.723286	-0.168947	0.547133	-0.706243	-0.155602	0.523385	-0.589507	-0.246990	0.382199	-0.712723	-0.253773	0.343332	-0.704395	-0.192461	0.336524	-0.711163	-0.193343	0.379913	-0.718684	-0.246295	0.195091	-0.693618	-0.215824	0.208256	-0.621976	-0.292137	0.201143	-0.648705	-0.183107	0.089755	-0.707060	-0.147018	0.087291	-0.641341	-0.132523	0.073710	-0.654714	
754	3.7700	-0.243795	1.447847	-0.532926	-0.184477	1.438506	-0.691612	-0.161003	1.434005	-0.385556	-0.121645	1.399589	-0.549569	-0.079775	0.970040	-0.426083	-0.110178	0.968836	-0.662780	-0.121258	1.054636	-0.406330	-0.152781	1.045902	-0.679036	-0.243910	1.013688	-0.478840	-0.257451	1.011763	-0.566120	-0.257256	1.009941	-0.524369	-0.167769	0.811078	-0.355631	-0.162221	0.749130	-0.359963	-0.090703	0.763546	-0.365090	-0.104306	0.822142	-0.361408	-0.146641	0.534256	-0.383962	-0.143646	0.521060	-0.506067	-0.224012	0.406165	-0.366940	-0.235524	0.365867	-0.377062	-0.167897	0.393540	-0.366108	-0.175943	0.354119	-0.371017	-0.218306	0.186001	-0.399213	-0.198411	0.187883	-0.474427	-0.268946	0.181154	-0.443267	-0.137542	0.095276	-0.381123	-0.105580	0.095782	-0.444457	-0.084724	0.087696	-0.439495	-0.215795	0.807129	-0.707885	-0.206323	0.748183	-0.710582	-0.136677	0.761405	-0.726569	-0.153886	0.820011	-0.723100	-0.167504	0.543102	-0.706754	-0.154024	0.519099	-0.590152	-0.246599	0.378615	-0.713028	-0.253648	0.339820	-0.704627	-0.192390	0.332565	-0.711453	-0.192966	0.375943	-0.719040	-0.247243	0.191563	-0.693724	-0.216856	0.204649	-0.622044	-0.293158	0.197923	-0.648991	-0.184545	0.085902	-0.706883	-0.148691	0.083357	-0.641077	-0.134226	0.069726	-0.654443	
755	3.7750	-0.243699	1.443606	-0.533014	-0.184146	1.434211	-0.691626	-0.161021	1.429597	-0.385554	-0.121604	1.395213	-0.549551	-0.080050	0.965984	-0.426112	-0.110413	0.964675	-0.662601	-0.121548	1.050502	-0.406344	-0.153047	1.041740	-0.678941	-0.244094	1.009666	-0.478683	-0.257673	1.007767	-0.565974	-0.257474	1.005931	-0.524214	-0.166992	0.806646	-0.355490	-0.161102	0.744753	-0.359849	-0.089693	0.759571	-0.365628	-0.103652	0.818122	-0.361682	-0.144381	0.529907	-0.383910	-0.142275	0.516873	-0.505904	-0.222615	0.402386	-0.366365	-0.234547	0.362173	-0.376527	-0.166578	0.389212	-0.366076	-0.175023	0.349910	-0.371004	-0.219281	0.182290	-0.399170	-0.199916	0.184125	-0.474478	-0.270216	0.178053	-0.442736	-0.139374	0.090460	-0.381934	-0.107839	0.091023	-0.445549	-0.087069	0.082805	-0.440755	-0.215316	0.802830	-0.707976	-0.205621	0.743915	-0.710762	-0.135961	0.757420	-0.726447	-0.153396	0.815979	-0.722909	-0.165982	0.538826	-0.707279	-0.152432	0.514594	-0.590806	-0.246131	0.374819	-0.713389	-0.253467	0.336117	-0.704919	-0.192268	0.328370	-0.711708	-0.192506	0.371733	-0.719377	-0.248231	0.187830	-0.693799	-0.217981	0.200858	-0.622086	-0.294236	0.194529	-0.649302	-0.186046	0.081735	-0.706592	-0.150454	0.079206	-0.640658	-0.136019	0.065503	-0.653979	
756	3.7800	-0.243614	1.439098	-0.533115	-0.183839	1.429662	-0.691644	-0.161080	1.424970	-0.385539	-0.121564	1.390576	-0.549531	-0.080353	0.961682	-0.426150	-0.110668	0.960279	-0.662430	-0.121862	1.046127	-0.406361	-0.153331	1.037371	-0.678837	-0.244297	1.005405	-0.478532	-0.257913	1.003551	-0.565822	-0.257707	1.001692	-0.524064	-0.166236	0.801971	-0.355377	-0.160011	0.740149	-0.359755	-0.088713	0.755375	-0.366233	-0.103038	0.813868	-0.362014	-0.142066	0.525328	-0.383848	-0.140868	0.512459	-0.505750	-0.221165	0.398371	-0.365785	-0.233534	0.358262	-0.375972	-0.165225	0.384651	-0.366018	-0.174085	0.345481	-0.370969	-0.220259	0.178383	-0.399090	-0.201442	0.180178	-0.474468	-0.271475	0.174864	-0.442148	-0.141364	0.085209	-0.382836	-0.110295	0.085903	-0.446702	-0.089633	0.077463	-0.442099	-0.214855	0.798320	-0.708116	-0.204928	0.739437	-0.710964	-0.135235	0.753225	-0.726274	-0.152919	0.811736	-0.722711	-0.164374	0.534305	-0.707815	-0.150824	0.509887	-0.591465	-0.245578	0.370804	-0.713806	-0.253233	0.332199	-0.705274	-0.192086	0.323933	-0.711924	-0.191963	0.367274	-0.719691	-0.249244	0.183894	-0.693849	-0.219186	0.196885	-0.622109	-0.295339	0.190944	-0.649609	-0.187629	0.077324	-0.706174	-0.152311	0.074819	-0.640119	-0.137896	0.061029	-0.653374	
757	3.7850	-0.243537	1.434325	-0.533220	-0.183560	1.424861	-0.691657	-0.161140	1.420087	-0.385543	-0.121525	1.385674	-0.549507	-0.080678	0.957132	-0.426196	-0.110942	0.955639	-0.662272	-0.122199	1.041508	-0.406374	-0.153628	1.032792	-0.678731	-0.244519	1.000894	-0.478393	-0.258168	0.999100	-0.565671	-0.257956	0.997207	-0.523918	-0.165503	0.797061	-0.355294	-0.158945	0.735307	-0.359712	-0.087774	0.750952	-0.366897	-0.102459	0.809374	-0.362403	-0.139711	0.520525	-0.383774	-0.139420	0.507821	-0.505602	-0.219666	0.394116	-0.365197	-0.232482	0.354125	-0.375396	-0.163841	0.379875	-0.365927	-0.173140	0.340818	-0.370913	-0.221208	0.174267	-0.398952	-0.202968	0.176027	-0.474378	-0.272692	0.171567	-0.441480	-0.143556	0.079522	-0.383819	-0.112944	0.080412	-0.447973	-0.092394	0.071741	-0.443556	-0.214408	0.793600	-0.708310	-0.204242	0.734746	-0.711184	-0.134503	0.748815	-0.726054	-0.152454	0.807273	-0.722498	-0.162679	0.529543	-0.708352	-0.149219	0.504985	-0.592117	-0.244938	0.366560	-0.714276	-0.252938	0.328060	-0.705685	-0.191841	0.319253	-0.712106	-0.191331	0.362569	-0.719988	-0.250256	0.179756	-0.693886	-0.220425	0.192720	-0.622123	-0.296434	0.187195	-0.649924	-0.189314	0.072585	-0.705652	-0.154269	0.070162	-0.639450	-0.139892	0.056274	-0.652625	
758	3.7900	-0.243467	1.429290	-0.533324	-0.183330	1.419811	-0.691666	-0.161215	1.414988	-0.385549	-0.121484	1.380518	-0.549474	-0.081011	0.952332	-0.426247	-0.111231	0.950754	-0.662130	-0.122557	1.036641	-0.406382	-0.153937	1.027990	-0.678626	-0.244762	0.996119	-0.478258	-0.258438	0.994385	-0.565530	-0.258223	0.992462	-0.523778	-0.164797	0.791920	-0.355232	-0.157911	0.730226	-0.359714	-0.086884	0.746302	-0.367591	-0.101919	0.804642	-0.362846	-0.137333	0.515496	-0.383696	-0.137922	0.502947	-0.505462	-0.218135	0.389633	-0.364601	-0.231398	0.349771	-0.374795	-0.162432	0.374883	-0.365800	-0.172168	0.335934	-0.370814	-0.222112	0.169921	-0.398742	-0.204456	0.171689	-0.474212	-0.273847	0.168158	-0.440736	-0.145926	0.073375	-0.384887	-0.115749	0.074575	-0.449280	-0.095349	0.065613	-0.445135	-0.213978	0.788653	-0.708548	-0.203571	0.729842	-0.711430	-0.133765	0.744173	-0.725768	-0.151999	0.802592	-0.722267	-0.160906	0.524543	-0.708884	-0.147617	0.499897	-0.592762	-0.244206	0.362079	-0.714798	-0.252561	0.323677	-0.706136	-0.191523	0.314331	-0.712261	-0.190606	0.357620	-0.720277	-0.251249	0.175408	-0.693927	-0.221696	0.188356	-0.622150	-0.297495	0.183285	-0.650239	-0.191114	0.067547	-0.705046	-0.156333	0.065212	-0.638706	-0.142021	0.051181	-0.651767	
